ISO-10303-21;
HEADER;
/* Generated by software containing ST-Developer
 * from STEP Tools, Inc. (www.steptools.com) 
 */

FILE_DESCRIPTION(
/* description */ (''),
/* implementation_level */ '2;1');

FILE_NAME(
/* name */ 'keyboatd.step',
/* time_stamp */ '2026-09-29T00:54:44+10:00',
/* author */ (''),
/* organization */ (''),
/* preprocessor_version */ 'ST-DEVELOPER v20.2',
/* originating_system */ 'Autodesk Translation Framework v15.15.0.0',
/* authorisation */ '');

FILE_SCHEMA (('AUTOMOTIVE_DESIGN { 1 0 10303 214 3 1 1 }'));
ENDSEC;

DATA;
#10=MECHANICAL_DESIGN_GEOMETRIC_PRESENTATION_REPRESENTATION('',(#13),#418);
#11=SHAPE_REPRESENTATION_RELATIONSHIP('SRR','None',#425,#12);
#12=ADVANCED_BREP_SHAPE_REPRESENTATION('',(#14),#417);
#13=STYLED_ITEM('',(#434),#14);
#14=MANIFOLD_SOLID_BREP('Body1',#258);
#15=FACE_BOUND('',#38,.T.);
#16=FACE_BOUND('',#40,.T.);
#17=FACE_OUTER_BOUND('',#30,.T.);
#18=FACE_OUTER_BOUND('',#31,.T.);
#19=FACE_OUTER_BOUND('',#32,.T.);
#20=FACE_OUTER_BOUND('',#33,.T.);
#21=FACE_OUTER_BOUND('',#34,.T.);
#22=FACE_OUTER_BOUND('',#35,.T.);
#23=FACE_OUTER_BOUND('',#36,.T.);
#24=FACE_OUTER_BOUND('',#37,.T.);
#25=FACE_OUTER_BOUND('',#39,.T.);
#26=FACE_OUTER_BOUND('',#41,.T.);
#27=FACE_OUTER_BOUND('',#42,.T.);
#28=FACE_OUTER_BOUND('',#43,.T.);
#29=FACE_OUTER_BOUND('',#44,.T.);
#30=EDGE_LOOP('',(#166,#167,#168,#169));
#31=EDGE_LOOP('',(#170,#171,#172,#173));
#32=EDGE_LOOP('',(#174,#175,#176,#177,#178,#179));
#33=EDGE_LOOP('',(#180,#181,#182,#183,#184,#185));
#34=EDGE_LOOP('',(#186,#187,#188,#189,#190,#191));
#35=EDGE_LOOP('',(#192,#193,#194,#195));
#36=EDGE_LOOP('',(#196,#197,#198,#199));
#37=EDGE_LOOP('',(#200,#201,#202,#203));
#38=EDGE_LOOP('',(#204,#205,#206,#207));
#39=EDGE_LOOP('',(#208,#209,#210,#211));
#40=EDGE_LOOP('',(#212,#213,#214,#215));
#41=EDGE_LOOP('',(#216,#217,#218,#219));
#42=EDGE_LOOP('',(#220,#221,#222,#223));
#43=EDGE_LOOP('',(#224,#225,#226,#227));
#44=EDGE_LOOP('',(#228,#229,#230,#231));
#45=LINE('',#350,#78);
#46=LINE('',#352,#79);
#47=LINE('',#354,#80);
#48=LINE('',#355,#81);
#49=LINE('',#358,#82);
#50=LINE('',#360,#83);
#51=LINE('',#361,#84);
#52=LINE('',#364,#85);
#53=LINE('',#366,#86);
#54=LINE('',#368,#87);
#55=LINE('',#369,#88);
#56=LINE('',#373,#89);
#57=LINE('',#375,#90);
#58=LINE('',#376,#91);
#59=LINE('',#377,#92);
#60=LINE('',#380,#93);
#61=LINE('',#381,#94);
#62=LINE('',#382,#95);
#63=LINE('',#385,#96);
#64=LINE('',#386,#97);
#65=LINE('',#388,#98);
#66=LINE('',#392,#99);
#67=LINE('',#394,#100);
#68=LINE('',#396,#101);
#69=LINE('',#397,#102);
#70=LINE('',#401,#103);
#71=LINE('',#402,#104);
#72=LINE('',#403,#105);
#73=LINE('',#406,#106);
#74=LINE('',#407,#107);
#75=LINE('',#410,#108);
#76=LINE('',#411,#109);
#77=LINE('',#413,#110);
#78=VECTOR('',#289,10.);
#79=VECTOR('',#290,10.);
#80=VECTOR('',#291,10.);
#81=VECTOR('',#292,10.);
#82=VECTOR('',#295,10.);
#83=VECTOR('',#296,10.);
#84=VECTOR('',#297,10.);
#85=VECTOR('',#300,10.);
#86=VECTOR('',#301,10.);
#87=VECTOR('',#302,10.);
#88=VECTOR('',#303,10.);
#89=VECTOR('',#306,10.);
#90=VECTOR('',#307,10.);
#91=VECTOR('',#308,10.);
#92=VECTOR('',#309,10.);
#93=VECTOR('',#312,10.);
#94=VECTOR('',#313,10.);
#95=VECTOR('',#314,10.);
#96=VECTOR('',#317,10.);
#97=VECTOR('',#318,10.);
#98=VECTOR('',#321,10.);
#99=VECTOR('',#324,10.);
#100=VECTOR('',#325,10.);
#101=VECTOR('',#326,10.);
#102=VECTOR('',#327,10.);
#103=VECTOR('',#330,10.);
#104=VECTOR('',#331,10.);
#105=VECTOR('',#332,10.);
#106=VECTOR('',#335,10.);
#107=VECTOR('',#336,10.);
#108=VECTOR('',#339,10.);
#109=VECTOR('',#340,10.);
#110=VECTOR('',#343,10.);
#111=VERTEX_POINT('',#348);
#112=VERTEX_POINT('',#349);
#113=VERTEX_POINT('',#351);
#114=VERTEX_POINT('',#353);
#115=VERTEX_POINT('',#357);
#116=VERTEX_POINT('',#359);
#117=VERTEX_POINT('',#363);
#118=VERTEX_POINT('',#365);
#119=VERTEX_POINT('',#367);
#120=VERTEX_POINT('',#371);
#121=VERTEX_POINT('',#372);
#122=VERTEX_POINT('',#374);
#123=VERTEX_POINT('',#379);
#124=VERTEX_POINT('',#384);
#125=VERTEX_POINT('',#390);
#126=VERTEX_POINT('',#391);
#127=VERTEX_POINT('',#393);
#128=VERTEX_POINT('',#395);
#129=VERTEX_POINT('',#399);
#130=VERTEX_POINT('',#400);
#131=VERTEX_POINT('',#405);
#132=VERTEX_POINT('',#409);
#133=EDGE_CURVE('',#111,#112,#45,.T.);
#134=EDGE_CURVE('',#113,#111,#46,.T.);
#135=EDGE_CURVE('',#114,#113,#47,.T.);
#136=EDGE_CURVE('',#114,#112,#48,.T.);
#137=EDGE_CURVE('',#115,#111,#49,.T.);
#138=EDGE_CURVE('',#116,#115,#50,.T.);
#139=EDGE_CURVE('',#113,#116,#51,.T.);
#140=EDGE_CURVE('',#112,#117,#52,.T.);
#141=EDGE_CURVE('',#118,#117,#53,.T.);
#142=EDGE_CURVE('',#119,#118,#54,.T.);
#143=EDGE_CURVE('',#119,#115,#55,.T.);
#144=EDGE_CURVE('',#120,#121,#56,.T.);
#145=EDGE_CURVE('',#121,#122,#57,.T.);
#146=EDGE_CURVE('',#117,#122,#58,.T.);
#147=EDGE_CURVE('',#120,#114,#59,.T.);
#148=EDGE_CURVE('',#123,#119,#60,.T.);
#149=EDGE_CURVE('',#121,#123,#61,.T.);
#150=EDGE_CURVE('',#116,#120,#62,.T.);
#151=EDGE_CURVE('',#123,#124,#63,.T.);
#152=EDGE_CURVE('',#122,#124,#64,.T.);
#153=EDGE_CURVE('',#124,#118,#65,.T.);
#154=EDGE_CURVE('',#125,#126,#66,.T.);
#155=EDGE_CURVE('',#126,#127,#67,.T.);
#156=EDGE_CURVE('',#127,#128,#68,.T.);
#157=EDGE_CURVE('',#128,#125,#69,.T.);
#158=EDGE_CURVE('',#129,#130,#70,.T.);
#159=EDGE_CURVE('',#130,#125,#71,.T.);
#160=EDGE_CURVE('',#129,#128,#72,.T.);
#161=EDGE_CURVE('',#131,#129,#73,.T.);
#162=EDGE_CURVE('',#131,#127,#74,.T.);
#163=EDGE_CURVE('',#132,#131,#75,.T.);
#164=EDGE_CURVE('',#132,#126,#76,.T.);
#165=EDGE_CURVE('',#130,#132,#77,.T.);
#166=ORIENTED_EDGE('',*,*,#133,.F.);
#167=ORIENTED_EDGE('',*,*,#134,.F.);
#168=ORIENTED_EDGE('',*,*,#135,.F.);
#169=ORIENTED_EDGE('',*,*,#136,.T.);
#170=ORIENTED_EDGE('',*,*,#137,.F.);
#171=ORIENTED_EDGE('',*,*,#138,.F.);
#172=ORIENTED_EDGE('',*,*,#139,.F.);
#173=ORIENTED_EDGE('',*,*,#134,.T.);
#174=ORIENTED_EDGE('',*,*,#137,.T.);
#175=ORIENTED_EDGE('',*,*,#133,.T.);
#176=ORIENTED_EDGE('',*,*,#140,.T.);
#177=ORIENTED_EDGE('',*,*,#141,.F.);
#178=ORIENTED_EDGE('',*,*,#142,.F.);
#179=ORIENTED_EDGE('',*,*,#143,.T.);
#180=ORIENTED_EDGE('',*,*,#144,.T.);
#181=ORIENTED_EDGE('',*,*,#145,.T.);
#182=ORIENTED_EDGE('',*,*,#146,.F.);
#183=ORIENTED_EDGE('',*,*,#140,.F.);
#184=ORIENTED_EDGE('',*,*,#136,.F.);
#185=ORIENTED_EDGE('',*,*,#147,.F.);
#186=ORIENTED_EDGE('',*,*,#143,.F.);
#187=ORIENTED_EDGE('',*,*,#148,.F.);
#188=ORIENTED_EDGE('',*,*,#149,.F.);
#189=ORIENTED_EDGE('',*,*,#144,.F.);
#190=ORIENTED_EDGE('',*,*,#150,.F.);
#191=ORIENTED_EDGE('',*,*,#138,.T.);
#192=ORIENTED_EDGE('',*,*,#149,.T.);
#193=ORIENTED_EDGE('',*,*,#151,.T.);
#194=ORIENTED_EDGE('',*,*,#152,.F.);
#195=ORIENTED_EDGE('',*,*,#145,.F.);
#196=ORIENTED_EDGE('',*,*,#148,.T.);
#197=ORIENTED_EDGE('',*,*,#142,.T.);
#198=ORIENTED_EDGE('',*,*,#153,.F.);
#199=ORIENTED_EDGE('',*,*,#151,.F.);
#200=ORIENTED_EDGE('',*,*,#154,.T.);
#201=ORIENTED_EDGE('',*,*,#155,.T.);
#202=ORIENTED_EDGE('',*,*,#156,.T.);
#203=ORIENTED_EDGE('',*,*,#157,.T.);
#204=ORIENTED_EDGE('',*,*,#153,.T.);
#205=ORIENTED_EDGE('',*,*,#141,.T.);
#206=ORIENTED_EDGE('',*,*,#146,.T.);
#207=ORIENTED_EDGE('',*,*,#152,.T.);
#208=ORIENTED_EDGE('',*,*,#158,.T.);
#209=ORIENTED_EDGE('',*,*,#159,.T.);
#210=ORIENTED_EDGE('',*,*,#157,.F.);
#211=ORIENTED_EDGE('',*,*,#160,.F.);
#212=ORIENTED_EDGE('',*,*,#139,.T.);
#213=ORIENTED_EDGE('',*,*,#150,.T.);
#214=ORIENTED_EDGE('',*,*,#147,.T.);
#215=ORIENTED_EDGE('',*,*,#135,.T.);
#216=ORIENTED_EDGE('',*,*,#161,.T.);
#217=ORIENTED_EDGE('',*,*,#160,.T.);
#218=ORIENTED_EDGE('',*,*,#156,.F.);
#219=ORIENTED_EDGE('',*,*,#162,.F.);
#220=ORIENTED_EDGE('',*,*,#163,.T.);
#221=ORIENTED_EDGE('',*,*,#162,.T.);
#222=ORIENTED_EDGE('',*,*,#155,.F.);
#223=ORIENTED_EDGE('',*,*,#164,.F.);
#224=ORIENTED_EDGE('',*,*,#165,.T.);
#225=ORIENTED_EDGE('',*,*,#164,.T.);
#226=ORIENTED_EDGE('',*,*,#154,.F.);
#227=ORIENTED_EDGE('',*,*,#159,.F.);
#228=ORIENTED_EDGE('',*,*,#165,.F.);
#229=ORIENTED_EDGE('',*,*,#158,.F.);
#230=ORIENTED_EDGE('',*,*,#161,.F.);
#231=ORIENTED_EDGE('',*,*,#163,.F.);
#232=PLANE('',#272);
#233=PLANE('',#273);
#234=PLANE('',#274);
#235=PLANE('',#275);
#236=PLANE('',#276);
#237=PLANE('',#277);
#238=PLANE('',#278);
#239=PLANE('',#279);
#240=PLANE('',#280);
#241=PLANE('',#281);
#242=PLANE('',#282);
#243=PLANE('',#283);
#244=PLANE('',#284);
#245=ADVANCED_FACE('',(#17),#232,.F.);
#246=ADVANCED_FACE('',(#18),#233,.F.);
#247=ADVANCED_FACE('',(#19),#234,.T.);
#248=ADVANCED_FACE('',(#20),#235,.T.);
#249=ADVANCED_FACE('',(#21),#236,.T.);
#250=ADVANCED_FACE('',(#22),#237,.T.);
#251=ADVANCED_FACE('',(#23),#238,.T.);
#252=ADVANCED_FACE('',(#24,#15),#239,.T.);
#253=ADVANCED_FACE('',(#25,#16),#240,.T.);
#254=ADVANCED_FACE('',(#26),#241,.T.);
#255=ADVANCED_FACE('',(#27),#242,.T.);
#256=ADVANCED_FACE('',(#28),#243,.T.);
#257=ADVANCED_FACE('',(#29),#244,.F.);
#258=CLOSED_SHELL('',(#245,#246,#247,#248,#249,#250,#251,#252,#253,#254,
#255,#256,#257));
#259=DERIVED_UNIT_ELEMENT(#261,1.);
#260=DERIVED_UNIT_ELEMENT(#420,-3.);
#261=(
MASS_UNIT()
NAMED_UNIT(*)
SI_UNIT(.KILO.,.GRAM.)
);
#262=DERIVED_UNIT((#259,#260));
#263=MEASURE_REPRESENTATION_ITEM('density measure',
POSITIVE_RATIO_MEASURE(7850.),#262);
#264=PROPERTY_DEFINITION_REPRESENTATION(#269,#266);
#265=PROPERTY_DEFINITION_REPRESENTATION(#270,#267);
#266=REPRESENTATION('material name',(#268),#417);
#267=REPRESENTATION('density',(#263),#417);
#268=DESCRIPTIVE_REPRESENTATION_ITEM('Steel','Steel');
#269=PROPERTY_DEFINITION('material property','material name',#427);
#270=PROPERTY_DEFINITION('material property','density of part',#427);
#271=AXIS2_PLACEMENT_3D('',#346,#285,#286);
#272=AXIS2_PLACEMENT_3D('',#347,#287,#288);
#273=AXIS2_PLACEMENT_3D('',#356,#293,#294);
#274=AXIS2_PLACEMENT_3D('',#362,#298,#299);
#275=AXIS2_PLACEMENT_3D('',#370,#304,#305);
#276=AXIS2_PLACEMENT_3D('',#378,#310,#311);
#277=AXIS2_PLACEMENT_3D('',#383,#315,#316);
#278=AXIS2_PLACEMENT_3D('',#387,#319,#320);
#279=AXIS2_PLACEMENT_3D('',#389,#322,#323);
#280=AXIS2_PLACEMENT_3D('',#398,#328,#329);
#281=AXIS2_PLACEMENT_3D('',#404,#333,#334);
#282=AXIS2_PLACEMENT_3D('',#408,#337,#338);
#283=AXIS2_PLACEMENT_3D('',#412,#341,#342);
#284=AXIS2_PLACEMENT_3D('',#414,#344,#345);
#285=DIRECTION('axis',(0.,0.,1.));
#286=DIRECTION('refdir',(1.,0.,0.));
#287=DIRECTION('center_axis',(0.,0.,1.));
#288=DIRECTION('ref_axis',(0.,-1.,0.));
#289=DIRECTION('',(0.,1.,0.));
#290=DIRECTION('',(1.,0.,0.));
#291=DIRECTION('',(0.,-1.,0.));
#292=DIRECTION('',(1.,0.,0.));
#293=DIRECTION('center_axis',(0.,-1.,0.));
#294=DIRECTION('ref_axis',(0.,0.,-1.));
#295=DIRECTION('',(0.,0.,1.));
#296=DIRECTION('',(1.,0.,0.));
#297=DIRECTION('',(0.,0.,-1.));
#298=DIRECTION('center_axis',(1.,0.,0.));
#299=DIRECTION('ref_axis',(0.,1.,0.));
#300=DIRECTION('',(0.,0.,1.));
#301=DIRECTION('',(0.,1.,0.));
#302=DIRECTION('',(0.,0.,1.));
#303=DIRECTION('',(0.,1.,0.));
#304=DIRECTION('center_axis',(0.,-1.,0.));
#305=DIRECTION('ref_axis',(1.,0.,0.));
#306=DIRECTION('',(1.,0.,0.));
#307=DIRECTION('',(0.,0.,1.));
#308=DIRECTION('',(1.,0.,0.));
#309=DIRECTION('',(0.,0.,1.));
#310=DIRECTION('center_axis',(0.,0.,1.));
#311=DIRECTION('ref_axis',(1.,0.,0.));
#312=DIRECTION('',(-1.,0.,0.));
#313=DIRECTION('',(0.,-1.,0.));
#314=DIRECTION('',(0.,1.,0.));
#315=DIRECTION('center_axis',(-1.,0.,0.));
#316=DIRECTION('ref_axis',(0.,-1.,0.));
#317=DIRECTION('',(0.,0.,1.));
#318=DIRECTION('',(0.,-1.,0.));
#319=DIRECTION('center_axis',(0.,1.,0.));
#320=DIRECTION('ref_axis',(-1.,0.,0.));
#321=DIRECTION('',(-1.,0.,0.));
#322=DIRECTION('center_axis',(0.,0.,1.));
#323=DIRECTION('ref_axis',(1.,0.,0.));
#324=DIRECTION('',(1.,0.,0.));
#325=DIRECTION('',(0.,1.,0.));
#326=DIRECTION('',(-1.,0.,0.));
#327=DIRECTION('',(0.,-1.,0.));
#328=DIRECTION('center_axis',(-1.,0.,0.));
#329=DIRECTION('ref_axis',(0.,-1.,0.));
#330=DIRECTION('',(0.,-1.,0.));
#331=DIRECTION('',(0.,0.,1.));
#332=DIRECTION('',(0.,0.,1.));
#333=DIRECTION('center_axis',(0.,1.,0.));
#334=DIRECTION('ref_axis',(-1.,0.,0.));
#335=DIRECTION('',(-1.,0.,0.));
#336=DIRECTION('',(0.,0.,1.));
#337=DIRECTION('center_axis',(1.,0.,0.));
#338=DIRECTION('ref_axis',(0.,1.,0.));
#339=DIRECTION('',(0.,1.,0.));
#340=DIRECTION('',(0.,0.,1.));
#341=DIRECTION('center_axis',(0.,-1.,0.));
#342=DIRECTION('ref_axis',(1.,0.,0.));
#343=DIRECTION('',(1.,0.,0.));
#344=DIRECTION('center_axis',(0.,0.,1.));
#345=DIRECTION('ref_axis',(1.,0.,0.));
#346=CARTESIAN_POINT('',(0.,0.,0.));
#347=CARTESIAN_POINT('Origin',(0.,130.,15.));
#348=CARTESIAN_POINT('',(3.00000004470348,100.,15.));
#349=CARTESIAN_POINT('',(3.00000004470348,130.000001937151,15.));
#350=CARTESIAN_POINT('',(3.00000004470348,67.5000000372529,15.));
#351=CARTESIAN_POINT('',(0.,100.,15.));
#352=CARTESIAN_POINT('',(0.,100.,15.));
#353=CARTESIAN_POINT('',(0.,130.,15.));
#354=CARTESIAN_POINT('',(0.,132.5,15.));
#355=CARTESIAN_POINT('',(0.,130.,15.));
#356=CARTESIAN_POINT('Origin',(0.,100.,15.));
#357=CARTESIAN_POINT('',(3.00000004470348,100.,5.));
#358=CARTESIAN_POINT('',(3.00000004470348,100.,7.5));
#359=CARTESIAN_POINT('',(0.,100.,5.));
#360=CARTESIAN_POINT('',(0.,100.,5.));
#361=CARTESIAN_POINT('',(0.,100.,7.5));
#362=CARTESIAN_POINT('Origin',(3.00000004470348,5.00000007450581,0.));
#363=CARTESIAN_POINT('',(3.00000004470348,130.000001937151,18.));
#364=CARTESIAN_POINT('',(3.00000004470348,130.000001937151,0.));
#365=CARTESIAN_POINT('',(3.00000004470348,5.00000007450581,18.));
#366=CARTESIAN_POINT('',(3.00000004470348,5.00000007450581,18.));
#367=CARTESIAN_POINT('',(3.00000004470348,5.00000007450581,5.));
#368=CARTESIAN_POINT('',(3.00000004470348,5.00000007450581,0.));
#369=CARTESIAN_POINT('',(3.00000004470348,36.2500005401671,5.));
#370=CARTESIAN_POINT('Origin',(3.00000004470348,130.000001937151,0.));
#371=CARTESIAN_POINT('',(0.,130.,5.));
#372=CARTESIAN_POINT('',(296.000004410744,130.000001937151,5.));
#373=CARTESIAN_POINT('',(76.2500011362135,130.000001937151,5.));
#374=CARTESIAN_POINT('',(296.000004410744,130.000001937151,18.));
#375=CARTESIAN_POINT('',(296.000004410744,130.000001937151,0.));
#376=CARTESIAN_POINT('',(3.00000004470348,130.000001937151,18.));
#377=CARTESIAN_POINT('',(0.,130.,2.5));
#378=CARTESIAN_POINT('Origin',(149.500002227724,67.5000010058284,5.));
#379=CARTESIAN_POINT('',(296.000004410744,5.00000007450581,5.));
#380=CARTESIAN_POINT('',(222.750003319234,5.00000007450581,5.));
#381=CARTESIAN_POINT('',(296.000004410744,98.7500014714897,5.));
#382=CARTESIAN_POINT('',(0.,117.5,5.));
#383=CARTESIAN_POINT('Origin',(296.000004410744,130.000001937151,0.));
#384=CARTESIAN_POINT('',(296.000004410744,5.00000007450581,18.));
#385=CARTESIAN_POINT('',(296.000004410744,5.00000007450581,0.));
#386=CARTESIAN_POINT('',(296.000004410744,130.000001937151,18.));
#387=CARTESIAN_POINT('Origin',(296.000004410744,5.00000007450581,0.));
#388=CARTESIAN_POINT('',(296.000004410744,5.00000007450581,18.));
#389=CARTESIAN_POINT('Origin',(149.5,67.5,18.));
#390=CARTESIAN_POINT('',(0.,0.,18.));
#391=CARTESIAN_POINT('',(299.,0.,18.));
#392=CARTESIAN_POINT('',(0.,0.,18.));
#393=CARTESIAN_POINT('',(299.,135.,18.));
#394=CARTESIAN_POINT('',(299.,0.,18.));
#395=CARTESIAN_POINT('',(0.,135.,18.));
#396=CARTESIAN_POINT('',(299.,135.,18.));
#397=CARTESIAN_POINT('',(0.,135.,18.));
#398=CARTESIAN_POINT('Origin',(0.,135.,0.));
#399=CARTESIAN_POINT('',(0.,135.,0.));
#400=CARTESIAN_POINT('',(0.,0.,0.));
#401=CARTESIAN_POINT('',(0.,135.,0.));
#402=CARTESIAN_POINT('',(0.,0.,0.));
#403=CARTESIAN_POINT('',(0.,135.,0.));
#404=CARTESIAN_POINT('Origin',(299.,135.,0.));
#405=CARTESIAN_POINT('',(299.,135.,0.));
#406=CARTESIAN_POINT('',(299.,135.,0.));
#407=CARTESIAN_POINT('',(299.,135.,0.));
#408=CARTESIAN_POINT('Origin',(299.,0.,0.));
#409=CARTESIAN_POINT('',(299.,0.,0.));
#410=CARTESIAN_POINT('',(299.,0.,0.));
#411=CARTESIAN_POINT('',(299.,0.,0.));
#412=CARTESIAN_POINT('Origin',(0.,0.,0.));
#413=CARTESIAN_POINT('',(0.,0.,0.));
#414=CARTESIAN_POINT('Origin',(149.5,67.5,0.));
#415=UNCERTAINTY_MEASURE_WITH_UNIT(LENGTH_MEASURE(0.01),#419,
'DISTANCE_ACCURACY_VALUE',
'Maximum model space distance between geometric entities at asserted c
onnectivities');
#416=UNCERTAINTY_MEASURE_WITH_UNIT(LENGTH_MEASURE(0.01),#419,
'DISTANCE_ACCURACY_VALUE',
'Maximum model space distance between geometric entities at asserted c
onnectivities');
#417=(
GEOMETRIC_REPRESENTATION_CONTEXT(3)
GLOBAL_UNCERTAINTY_ASSIGNED_CONTEXT((#415))
GLOBAL_UNIT_ASSIGNED_CONTEXT((#419,#421,#422))
REPRESENTATION_CONTEXT('','3D')
);
#418=(
GEOMETRIC_REPRESENTATION_CONTEXT(3)
GLOBAL_UNCERTAINTY_ASSIGNED_CONTEXT((#416))
GLOBAL_UNIT_ASSIGNED_CONTEXT((#419,#421,#422))
REPRESENTATION_CONTEXT('','3D')
);
#419=(
LENGTH_UNIT()
NAMED_UNIT(*)
SI_UNIT(.MILLI.,.METRE.)
);
#420=(
LENGTH_UNIT()
NAMED_UNIT(*)
SI_UNIT($,.METRE.)
);
#421=(
NAMED_UNIT(*)
PLANE_ANGLE_UNIT()
SI_UNIT($,.RADIAN.)
);
#422=(
NAMED_UNIT(*)
SI_UNIT($,.STERADIAN.)
SOLID_ANGLE_UNIT()
);
#423=SHAPE_DEFINITION_REPRESENTATION(#424,#425);
#424=PRODUCT_DEFINITION_SHAPE('',$,#427);
#425=SHAPE_REPRESENTATION('',(#271),#417);
#426=PRODUCT_DEFINITION_CONTEXT('part definition',#431,'design');
#427=PRODUCT_DEFINITION('2026-09-29-00-22-56-937','keyboatd',#428,#426);
#428=PRODUCT_DEFINITION_FORMATION('',$,#433);
#429=PRODUCT_RELATED_PRODUCT_CATEGORY('keyboatd','keyboatd',(#433));
#430=APPLICATION_PROTOCOL_DEFINITION('international standard',
'automotive_design',2009,#431);
#431=APPLICATION_CONTEXT(
'Core Data for Automotive Mechanical Design Process');
#432=PRODUCT_CONTEXT('part definition',#431,'mechanical');
#433=PRODUCT('2026-09-29-00-22-56-937','keyboatd',$,(#432));
#434=PRESENTATION_STYLE_ASSIGNMENT((#435));
#435=SURFACE_STYLE_USAGE(.BOTH.,#436);
#436=SURFACE_SIDE_STYLE('',(#437));
#437=SURFACE_STYLE_FILL_AREA(#438);
#438=FILL_AREA_STYLE('Steel - Satin',(#439));
#439=FILL_AREA_STYLE_COLOUR('Steel - Satin',#440);
#440=COLOUR_RGB('Steel - Satin',0.627450980392157,0.627450980392157,0.627450980392157);
ENDSEC;
END-ISO-10303-21;
